{"accessors" : [{"bufferView" : 0, "byteOffset" : 0, "componentType" : 5125, "count" : 78804, "type" : "SCALAR", "max" : [78660], "min" : [0]}, {"bufferView" : 1, "byteOffset" : 0, "componentType" : 5126, "count" : 78661, "type" : "VEC3", "max" : [2.5889999866485596, 10.324999809265137, 58.31399917602539], "min" : [-37.08000183105469, -36.27799987792969, -2.1930873932737675E-14], "name" : "POSITION"}, {"bufferView" : 1, "byteOffset" : 12, "componentType" : 5126, "count" : 78661, "type" : "VEC3", "max" : [0.9998961687088013, 0.9998009204864502, 0.9998973608016968], "min" : [-1.0000016689300537, -0.999979555606842, -1.0000044107437134], "name" : "NORMAL"}], "asset" : {"generator" : "Aspose.3D 23.9.0", "version" : "2.0"}, "buffers" : [{"uri" : "data:application/octet-stream;base64,", "byteLength" : 2206520}], "bufferViews" : [{"buffer" : 0, "byteOffset" : 0, "byteLength" : 315216, "target" : 34963}, {"buffer" : 0, "byteOffset" : 315220, "byteLength" : 1891296, "byteStride" : 24, "target" : 34962}], "meshes" : [{"primitives" : [{"attributes" : {"POSITION" : 1, "NORMAL" : 2}, "indices" : 0, "mode" : 4}], "name" : ""}], "nodes" : [{"mesh" : 0, "name" : ""}], "scene" : 0, "scenes" : [{"nodes" : [0]}]}